#!OML:ASF H:\Not Pregnant\Project 1\Capture day 1\Session 1\non-pregnant.ASF
:FULLY-SPECIFIED
:DEGREES
898
root -5.62123 16.1518 35.4182 176.338 -78.7361 -167.559
lowerback -10.8812 2.49881 -0.768271
upperback -4.00837 3.25703 -0.950606
thorax 1.9285 1.55287 -0.15413
lowerneck 23.0874 -9.49175 -27.9599
upperneck 4.59429 -27.2718 43.5344
head 9.43237 -17.6123 22.0525
rclavicle -4.1049e-014 8.74653e-015
rhumerus -33.1471 10.2992 -95.4174
rradius 25.3957
rwrist 24.107
rhand -8.55515 3.62246
rfingers 7.12502
rthumb 17.3746 -25.621
lclavicle -4.1049e-014 8.74653e-015
lhumerus -41.3388 -13.3969 94.5945
lradius 32.1972
lwrist 37.7139
lhand -15.7407 -13.0965
lfingers 7.12502
lthumb 10.4503 16.6237
rfemur -10.9273 4.30702 17.9682
rtibia 16.4505
rfoot -15.0761 2.34486
rtoes -22.0378
lfemur -13.0629 5.06882 -19.0929
ltibia 18.395
lfoot -15.8307 -6.21416
ltoes -18.1129
899
root -5.62172 16.1506 35.4413 176.853 -78.6461 -168.041
lowerback -10.8876 2.50628 -0.802048
upperback -4.02377 3.26973 -0.975209
thorax 1.91547 1.55879 -0.159261
lowerneck 23.0108 -9.4677 -28.0123
upperneck 4.53281 -27.163 43.5113
head 9.36805 -17.5395 22.0549
rclavicle -1.98288e-014 -1.43125e-014
rhumerus -33.1523 10.2864 -95.4149
rradius 25.4018
rwrist 24.0728
rhand -8.54389 3.62215
rfingers 7.12502
rthumb 17.3855 -25.6203
lclavicle -1.98288e-014 -1.43125e-014
lhumerus -41.3503 -13.342 94.6032
lradius 32.1757
lwrist 37.69
lhand -15.7312 -13.1431
lfingers 7.12502
lthumb 10.4594 16.5767
rfemur -11.0624 4.38888 17.7818
rtibia 16.5597
rfoot -15.1048 2.32305
rtoes -22.1005
lfemur -13.1326 5.47114 -19.2861
ltibia 18.3982
lfoot -15.8677 -6.61262
ltoes -17.6023
900
root -5.62191 16.1494 35.4647 177.306 -78.5602 -168.46
lowerback -10.8867 2.51326 -0.818065
upperback -4.03881 3.28001 -1.00087
thorax 1.89992 1.56349 -0.17601
lowerneck 22.9352 -9.44035 -28.0588
upperneck 4.47056 -27.0488 43.4923
head 9.30092 -17.465 22.0613
rclavicle 1.43125e-014 -1.19271e-014
rhumerus -33.1492 10.2424 -95.4057
rradius 25.399
rwrist 24.0753
rhand -8.53396 3.61766
rfingers 7.12502
rthumb 17.395 -25.624
lclavicle 1.43125e-014 -1.19271e-014
lhumerus -41.3434 -13.2528 94.5697
lradius 32.109
lwrist 37.5206
lhand -15.5583 -13.2036
lfingers 7.12502
lthumb 10.6263 16.5077
rfemur -11.1961 4.47351 17.605
rtibia 16.6714
rfoot -15.1325 2.29478
rtoes -22.1563
lfemur -13.205 5.86043 -19.4694
ltibia 18.4077
lfoot -15.9002 -7.00449
ltoes -17.1062
901
root -5.62179 16.1482 35.4885 177.721 -78.4797 -168.843
lowerback -10.8813 2.5196 -0.819927
upperback -4.05332 3.28813 -1.03026
thorax 1.88356 1.56704 -0.204967
lowerneck 22.8624 -9.41277 -28.0977
upperneck 4.40594 -26.9334 43.4763
head 9.23137 -17.3903 22.0687
rclavicle -2.08227e-014 -1.19271e-014
rhumerus -33.1396 10.1866 -95.3978
rradius 25.3923
rwrist 24.0907
rhand -8.5266 3.6177
rfingers 7.12502
rthumb 17.4021 -25.6233
lclavicle -2.08227e-014 -1.19271e-014
lhumerus -41.3435 -13.1928 94.5443
lradius 32.0631
lwrist 37.4112
lhand -15.4052 -13.2196
lfingers 7.12502
lthumb 10.7739 16.4841
rfemur -11.3349 4.55087 17.4328
rtibia 16.7921
rfoot -15.1641 2.2699
rtoes -22.1977
lfemur -13.2822 6.23172 -19.6486
ltibia 18.4229
lfoot -15.9293 -7.37779
ltoes -16.637
902
root -5.62124 16.1469 35.513 178.165 -78.4074 -169.251
lowerback -10.8729 2.52319 -0.816458
upperback -4.06758 3.29222 -1.06749
thorax 1.86657 1.56851 -0.2456
lowerneck 22.792 -9.38575 -28.1366
upperneck 4.33933 -26.8223 43.4651
head 9.16509 -17.3195 22.0792
rclavicle -3.3048e-014 7.95139e-015
rhumerus -33.1288 10.157 -95.4088
rradius 25.3869
rwrist 24.0859
rhand -8.52836 3.62288
rfingers 7.12502
rthumb 17.4004 -25.6183
lclavicle -3.3048e-014 7.95139e-015
lhumerus -41.3485 -13.1585 94.5267
lradius 32.0371
lwrist 37.3483
lhand -15.2873 -13.1813
lfingers 7.12502
lthumb 10.8876 16.5165
rfemur -11.4828 4.61155 17.2515
rtibia 16.923
rfoot -15.2011 2.24731
rtoes -22.261
lfemur -13.3706 6.58001 -19.8396
ltibia 18.4488
lfoot -15.959 -7.72733
ltoes -16.1994
903
root -5.62023 16.1453 35.5376 178.626 -78.3372 -169.675
lowerback -10.8642 2.52365 -0.813631
upperback -4.08033 3.29235 -1.10807
thorax 1.85112 1.568 -0.289799
lowerneck 22.7193 -9.36157 -28.1795
upperneck 4.27655 -26.7202 43.4538
head 9.10668 -17.2537 22.0884
rclavicle -2.89232e-014 -1.74931e-014
rhumerus -33.1101 10.1276 -95.4247
rradius 25.3769
rwrist 24.0945
rhand -8.53413 3.64226
rfingers 7.12502
rthumb 17.3948 -25.5994
lclavicle -2.89232e-014 -1.74931e-014
lhumerus -41.3598 -13.1513 94.5193
lradius 32.0339
lwrist 37.3342
lhand -15.2171 -13.0904
lfingers 7.12502
lthumb 10.9554 16.6038
rfemur -11.6444 4.66433 17.065
rtibia 17.0698
rfoot -15.242 2.22965
rtoes -22.3218
lfemur -13.4702 6.90242 -20.0367
ltibia 18.4874
lfoot -15.991 -8.04333
ltoes -15.8133
904
root -5.61872 16.1434 35.5616 179.02 -78.2658 -170.033
lowerback -10.8515 2.52519 -0.807767
upperback -4.09062 3.29371 -1.14525
thorax 1.83606 1.56818 -0.332134
lowerneck 22.6476 -9.34272 -28.2155
upperneck 4.21234 -26.625 43.4428
head 9.04989 -17.1911 22.0931
rclavicle 1.36664e-014 7.95139e-015
rhumerus -33.0798 10.0588 -95.4302
rradius 25.3565
rwrist 24.1445
rhand -8.55463 3.68061
rfingers 7.12502
rthumb 17.3751 -25.5628
lclavicle 1.36664e-014 7.95139e-015
lhumerus -41.3749 -13.1804 94.5276
lradius 32.0393
lwrist 37.3036
lhand -15.2013 -12.9557
lfingers 7.12502
lthumb 10.9706 16.7376
rfemur -11.8153 4.72407 16.8952
rtibia 17.2319
rfoot -15.2831 2.20336
rtoes -22.3966
lfemur -13.58 7.19689 -20.2171
ltibia 18.5446
lfoot -16.0245 -8.32602
ltoes -15.4587
905
root -5.61666 16.1411 35.5847 179.36 -78.1915 -170.34
lowerback -10.8331 2.5235 -0.80664
upperback -4.09761 3.29127 -1.17381
thorax 1.82052 1.56665 -0.363547
lowerneck 22.5663 -9.32686 -28.2484
upperneck 4.15706 -26.5302 43.4218
head 8.99422 -17.1254 22.0874
rclavicle 1.05356e-014 -1.59028e-014
rhumerus -33.0397 9.96243 -95.4247
rradius 25.3292
rwrist 24.2371
rhand -8.59388 3.72354
rfingers 7.12502
rthumb 17.3373 -25.5232
lclavicle 1.05356e-014 -1.59028e-014
lhumerus -41.3793 -13.1951 94.5214
lradius 32.0275
lwrist 37.2484
lhand -15.1315 -12.8366
lfingers 7.12502
lthumb 11.0379 16.8532
rfemur -11.9918 4.7912 16.7396
rtibia 17.4059
rfoot -15.3227 2.16932
rtoes -22.4831
lfemur -13.6994 7.47672 -20.384
ltibia 18.6239
lfoot -16.0633 -8.58813
ltoes -15.1102
906
root -5.614 16.1385 35.6064 179.603 -78.1114 -170.554
lowerback -10.8095 2.51908 -0.814469
upperback -4.10019 3.28604 -1.18584
thorax 1.80523 1.56405 -0.373336
lowerneck 22.4799 -9.31279 -28.2817
upperneck 4.10655 -26.4345 43.3922
head 8.93805 -17.0568 22.0743
rclavicle -3.4191e-014 2.22639e-014
rhumerus -32.9999 9.88523 -95.4171
rradius 25.3131
rwrist 24.3272
rhand -8.65424 3.74443
rfingers 7.12502
rthumb 17.2792 -25.5074
lclavicle -3.4191e-014 2.22639e-014
lhumerus -41.3731 -13.1957 94.5069
lradius 32.0022
lwrist 37.2323
lhand -15.0006 -12.7636
lfingers 7.12502
lthumb 11.1642 16.9194
rfemur -12.1692 4.87598 16.6098
rtibia 17.5853
rfoot -15.3555 2.12119
rtoes -22.5861
lfemur -13.8277 7.73131 -20.5227
ltibia 18.7288
lfoot -16.1044 -8.82253
ltoes -14.7766
907
root -5.61073 16.1355 35.6278 179.81 -78.0325 -170.736
lowerback -10.7779 2.51017 -0.831065
upperback -4.09886 3.27574 -1.18608
thorax 1.78839 1.55921 -0.366917
lowerneck 22.3861 -9.29894 -28.3281
upperneck 4.06269 -26.3421 43.3573
head 8.88882 -16.9889 22.0595
rclavicle -4.33351e-014 -1.35174e-014
rhumerus -32.9659 9.86236 -95.4187
rradius 25.3119
rwrist 24.3719
rhand -8.74485 3.73951
rfingers 7.12502
rthumb 17.192 -25.5199
lclavicle -4.33351e-014 -1.35174e-014
lhumerus -41.3534 -13.1707 94.4809
lradius 31.9694
lwrist 37.2816
lhand -14.7902 -12.7158
lfingers 7.12502
lthumb 11.3671 16.9561
rfemur -12.3464 4.97549 16.4867
rtibia 17.7704
rfoot -15.3823 2.05764
rtoes -22.6816
lfemur -13.9644 7.97249 -20.6527
ltibia 18.8549
lfoot -16.1461 -9.05132
ltoes -14.4061
908
root -5.60682 16.1324 35.6492 179.974 -77.9565 -170.879
lowerback -10.7368 2.49806 -0.842277
upperback -4.09352 3.26076 -1.18029
thorax 1.77048 1.5522 -0.35814
lowerneck 22.2827 -9.28461 -28.3821
upperneck 4.02663 -26.2505 43.3186
head 8.84548 -16.9202 22.0437
rclavicle -1.91827e-014 -1.59028e-015
rhumerus -32.9277 9.84764 -95.4176
rradius 25.316
rwrist 24.4077
rhand -8.85452 3.72768
rfingers 7.12502
rthumb 17.0865 -25.541
lclavicle -1.91827e-014 -1.59028e-015
lhumerus -41.3146 -13.1148 94.429
lradius 31.9189
lwrist 37.3436
lhand -14.4797 -12.6918
lfingers 7.12502
lthumb 11.6665 16.9633
rfemur -12.526 5.09089 16.3708
rtibia 17.9659
rfoot -15.4053 1.97504
rtoes -22.7827
lfemur -14.1059 8.19707 -20.7741
ltibia 18.9941
lfoot -16.1866 -9.26863
ltoes -14.0144
909
root -5.60235 16.129 35.6708 180.132 -77.8828 -171.023
lowerback -10.6867 2.48191 -0.854511
upperback -4.08368 3.24073 -1.17047
thorax 1.75209 1.54286 -0.345479
lowerneck 22.1721 -9.26776 -28.4494
upperneck 3.99745 -26.1602 43.2792
head 8.80988 -16.8526 22.0316
rclavicle -6.26172e-015 7.95139e-015
rhumerus -32.8855 9.83134 -95.4104
rradius 25.3239
rwrist 24.4415
rhand -8.99397 3.70333
rfingers 7.12502
rthumb 16.9522 -25.5769
lclavicle -6.26172e-015 7.95139e-015
lhumerus -41.2796 -13.0804 94.3967
lradius 31.8508
lwrist 37.2604
lhand -14.2386 -12.6827
lfingers 7.12502
lthumb 11.899 16.9592
rfemur -12.7113 5.22184 16.2524
rtibia 18.1809
rfoot -15.4309 1.8743
rtoes -22.8773
lfemur -14.2466 8.41706 -20.8971
ltibia 19.1363
lfoot -16.2253 -9.48203
ltoes -13.6479
910
root -5.59739 16.1254 35.6933 180.392 -77.815 -171.272
lowerback -10.6297 2.46083 -0.881242
upperback -4.06939 3.21589 -1.16475
thorax 1.73397 1.53128 -0.329682
lowerneck 22.053 -9.24854 -28.5302
upperneck 3.97623 -26.0725 43.2405
head 8.7838 -16.7868 22.0242
rclavicle -2.06239e-014 1.90833e-014
rhumerus -32.841 9.83388 -95.4046
rradius 25.3379
rwrist 24.4475
rhand -9.16041 3.66115
rfingers 7.12502
rthumb 16.792 -25.6327
lclavicle -2.06239e-014 1.90833e-014
lhumerus -41.2478 -13.0632 94.3854
lradius 31.7646
lwrist 37.0304
lhand -14.0743 -12.6994
lfingers 7.12502
lthumb 12.0575 16.9333
rfemur -12.9071 5.33523 16.105
rtibia 18.4199
rfoot -15.4691 1.78235
rtoes -22.9569
lfemur -14.3869 8.6435 -21.0513
ltibia 19.2779
lfoot -16.2664 -9.70228
ltoes -13.3262
